<?xml version="1.0" encoding="UTF-8" standalone="no"?>
<!-- Created with Inkscape (http://www.inkscape.org/) -->

<svg
   width="150mm"
   height="150mm"
   viewBox="0 0 150 150"
   version="1.1"
   id="svg1"
   xml:space="preserve"
   inkscape:version="1.4 (86a8ad7, 2024-10-11)"
   sodipodi:docname="Logo.svg"
   xmlns:inkscape="http://www.inkscape.org/namespaces/inkscape"
   xmlns:sodipodi="http://sodipodi.sourceforge.net/DTD/sodipodi-0.dtd"
   xmlns="http://www.w3.org/2000/svg"
   xmlns:svg="http://www.w3.org/2000/svg"><sodipodi:namedview
     id="namedview1"
     pagecolor="#ffffff"
     bordercolor="#000000"
     borderopacity="0.25"
     inkscape:showpageshadow="2"
     inkscape:pageopacity="0.0"
     inkscape:pagecheckerboard="0"
     inkscape:deskcolor="#d1d1d1"
     inkscape:document-units="mm"
     inkscape:zoom="0.71891835"
     inkscape:cx="351.22208"
     inkscape:cy="296.97392"
     inkscape:window-width="1920"
     inkscape:window-height="1009"
     inkscape:window-x="2"
     inkscape:window-y="1072"
     inkscape:window-maximized="1"
     inkscape:current-layer="layer1" /><defs
     id="defs1" /><g
     inkscape:label="Layer 1"
     inkscape:groupmode="layer"
     id="layer1"><g
       id="g19"
       transform="translate(-27.680315,-64.115284)"><path
         id="path18"
         style="fill:#acacac;fill-opacity:1;stroke-width:0.246086"
         d="m 48.977889,73.237907 c -2.463169,0 -4.44624,2.169574 -4.44624,4.864302 v 5.316472 116.709669 0.20412 c 0,0.81409 0.234799,1.56626 0.614433,2.23088 0.768389,1.44824 2.184883,2.42931 3.831807,2.42931 h 0.415479 97.052472 9.52138 c 2.6933,0 4.86172,-2.07836 4.86172,-4.66019 V 83.418681 c 0,-2.581821 -2.16842,-4.660181 -4.86172,-4.660181 h -5.07514 v -0.656291 c 0,-2.694728 -1.98307,-4.864302 -4.44624,-4.864302 z" /><g
         id="g18"
         transform="translate(-132.49062,5.7251996)"><path
           id="rect18"
           style="fill:#226a0b;fill-opacity:1;stroke:none;stroke-width:2.165;stroke-linejoin:round;stroke-dasharray:none;stroke-opacity:1"
           d="m 183.15885,78.390564 c -0.64716,0 -1.16841,0.520733 -1.16841,1.167887 V 187.81489 c 0,0.64716 0.52125,1.16841 1.16841,1.16841 h 104.02414 c 0.64715,0 1.1684,-0.52125 1.1684,-1.16841 V 79.558451 c 0,-0.647154 -0.52125,-1.167887 -1.1684,-1.167887 z m 52.19629,85.566866 a 8.0966539,8.0966539 0 0 1 8.09667,8.09667 8.0966539,8.0966539 0 0 1 -8.09667,8.09666 8.0966539,8.0966539 0 0 1 -8.09666,-8.09666 8.0966539,8.0966539 0 0 1 8.09666,-8.09667 z" /><circle
           style="fill:#d0c400;fill-opacity:1;stroke:none;stroke-width:2.165;stroke-linejoin:round;stroke-dasharray:none;stroke-opacity:1"
           id="path12"
           cx="258.15445"
           cy="111.38115"
           r="22.380323" /><rect
           style="fill:#c9c9c9;fill-opacity:1;stroke:none;stroke-width:2.165;stroke-linejoin:round;stroke-dasharray:none;stroke-opacity:1"
           id="rect13"
           width="5.5950809"
           height="31.748831"
           x="186.32921"
           y="88.8881"
           ry="1.6915361" /><rect
           style="fill:#c9c9c9;fill-opacity:1;stroke:none;stroke-width:1.5292;stroke-linejoin:round;stroke-dasharray:none;stroke-opacity:1"
           id="rect13-4"
           width="3.0188727"
           height="29.356638"
           x="210.6461"
           y="134.82225"
           ry="1.5640831" /><rect
           style="fill:#c9c9c9;fill-opacity:1;stroke:none;stroke-width:1.5292;stroke-linejoin:round;stroke-dasharray:none;stroke-opacity:1"
           id="rect13-4-6"
           width="3.0188727"
           height="29.356638"
           x="215.11983"
           y="134.82225"
           ry="1.5640831" /><rect
           style="fill:#c9c9c9;fill-opacity:1;stroke:none;stroke-width:1.5292;stroke-linejoin:round;stroke-dasharray:none;stroke-opacity:1"
           id="rect13-4-9"
           width="3.0188727"
           height="29.356638"
           x="219.59354"
           y="134.82225"
           ry="1.5640831" /><rect
           style="fill:#c9c9c9;fill-opacity:1;stroke:none;stroke-width:1.5292;stroke-linejoin:round;stroke-dasharray:none;stroke-opacity:1"
           id="rect13-4-8"
           width="3.0188727"
           height="29.356638"
           x="224.06726"
           y="134.82225"
           ry="1.5640831" /><rect
           style="fill:#c9c9c9;fill-opacity:1;stroke:none;stroke-width:1.91633;stroke-linejoin:round;stroke-dasharray:none;stroke-opacity:1"
           id="rect13-4-8-2"
           width="3.0188727"
           height="46.10199"
           x="269.23001"
           y="135.84914"
           ry="1.168149" /><rect
           style="fill:#c9c9c9;fill-opacity:1;stroke:none;stroke-width:1.91633;stroke-linejoin:round;stroke-dasharray:none;stroke-opacity:1"
           id="rect13-4-8-2-3"
           width="3.0188727"
           height="46.10199"
           x="264.69012"
           y="135.84914"
           ry="1.168149" /><rect
           style="fill:#c9c9c9;fill-opacity:1;stroke:none;stroke-width:1.91633;stroke-linejoin:round;stroke-dasharray:none;stroke-opacity:1"
           id="rect13-4-8-2-0"
           width="3.0188727"
           height="46.10199"
           x="260.15027"
           y="135.84914"
           ry="1.168149" /><rect
           style="fill:#c9c9c9;fill-opacity:1;stroke:none;stroke-width:1.91633;stroke-linejoin:round;stroke-dasharray:none;stroke-opacity:1"
           id="rect13-4-8-2-7"
           width="3.0188727"
           height="46.10199"
           x="255.61037"
           y="135.84914"
           ry="1.168149" /><rect
           style="fill:#000000;fill-opacity:1;stroke:none;stroke-width:1.94446;stroke-linejoin:round;stroke-dasharray:none;stroke-opacity:1"
           id="rect12-2-3"
           width="21.599613"
           height="39.816158"
           x="253.30769"
           y="138.99205"
           ry="3.5003214" /><rect
           style="fill:#c9c9c9;fill-opacity:1;stroke:none;stroke-width:2.165;stroke-linejoin:round;stroke-dasharray:none;stroke-opacity:1"
           id="rect13-2"
           width="5.5950809"
           height="31.748831"
           x="194.60239"
           y="88.8881"
           ry="1.6915361" /><rect
           style="fill:#c9c9c9;fill-opacity:1;stroke:none;stroke-width:2.165;stroke-linejoin:round;stroke-dasharray:none;stroke-opacity:1"
           id="rect13-5"
           width="5.5950809"
           height="31.748831"
           x="202.87555"
           y="88.8881"
           ry="1.6915361" /><rect
           style="fill:#c9c9c9;fill-opacity:1;stroke:none;stroke-width:2.165;stroke-linejoin:round;stroke-dasharray:none;stroke-opacity:1"
           id="rect13-0"
           width="5.5950809"
           height="31.748831"
           x="211.14871"
           y="88.8881"
           ry="1.6915361" /><rect
           style="fill:#c9c9c9;fill-opacity:1;stroke:none;stroke-width:2.165;stroke-linejoin:round;stroke-dasharray:none;stroke-opacity:1"
           id="rect13-8"
           width="5.5950809"
           height="31.748831"
           x="219.42189"
           y="88.8881"
           ry="1.6915361" /><rect
           style="fill:#000000;fill-opacity:1;stroke:none;stroke-width:2.165;stroke-linejoin:round;stroke-dasharray:none;stroke-opacity:1"
           id="rect12"
           width="45.020882"
           height="23.681505"
           x="183.20638"
           y="92.921761"
           ry="2.0818906" /><rect
           style="fill:#c9c9c9;fill-opacity:1;stroke:none;stroke-width:1.5292;stroke-linejoin:round;stroke-dasharray:none;stroke-opacity:1"
           id="rect14"
           width="3.0188727"
           height="29.356638"
           x="141.28055"
           y="-233.54443"
           ry="1.5640831"
           transform="rotate(90)" /><rect
           style="fill:#c9c9c9;fill-opacity:1;stroke:none;stroke-width:1.5292;stroke-linejoin:round;stroke-dasharray:none;stroke-opacity:1"
           id="rect15"
           width="3.0188727"
           height="29.356638"
           x="145.75427"
           y="-233.54443"
           ry="1.5640831"
           transform="rotate(90)" /><rect
           style="fill:#c9c9c9;fill-opacity:1;stroke:none;stroke-width:1.5292;stroke-linejoin:round;stroke-dasharray:none;stroke-opacity:1"
           id="rect16"
           width="3.0188727"
           height="29.356638"
           x="150.22798"
           y="-233.54443"
           ry="1.5640831"
           transform="rotate(90)" /><rect
           style="fill:#c9c9c9;fill-opacity:1;stroke:none;stroke-width:1.5292;stroke-linejoin:round;stroke-dasharray:none;stroke-opacity:1"
           id="rect17"
           width="3.0188727"
           height="29.356638"
           x="154.70171"
           y="-233.54443"
           ry="1.5640831"
           transform="rotate(90)" /><rect
           style="fill:#000000;fill-opacity:1;stroke:none;stroke-width:1.39723;stroke-linejoin:round;stroke-dasharray:none;stroke-opacity:1"
           id="rect12-2"
           width="21.599613"
           height="20.55867"
           x="207.57997"
           y="139.22124"
           ry="1.8073555" /></g><path
         id="rect1"
         style="fill:#acacac;fill-opacity:1;stroke-width:0.246086"
         d="m 48.977889,73.237907 c -2.463169,0 -4.44624,2.169574 -4.44624,4.864302 v 5.316472 116.709669 0.20412 c 0,0.81409 0.234799,1.56626 0.614433,2.23088 0.768389,1.44824 2.184883,2.42931 3.831807,2.42931 h 0.415479 97.052472 9.52138 c 2.6933,0 4.86172,-2.07836 4.86172,-4.66019 V 83.418681 c 0,-2.581821 -2.16842,-4.660181 -4.86172,-4.660181 h -5.07514 v -0.656291 c 0,-2.694728 -1.98307,-4.864302 -4.44624,-4.864302 z m 11.747087,36.251013 h 84.278574 c 1.52916,0 2.76056,1.23088 2.76056,2.76004 v 74.34223 c 0,1.52917 -1.2314,2.76004 -2.76056,2.76004 H 60.724976 c -1.529162,0 -2.760039,-1.23087 -2.760039,-2.76004 v -74.34223 c 0,-1.52916 1.230877,-2.76004 2.760039,-2.76004 z" /><rect
         style="fill:#737373;fill-opacity:0.719231;stroke-width:0.264583"
         id="rect2"
         width="90.665428"
         height="23.338314"
         x="57.78067"
         y="81.380325"
         rx="11.669"
         ry="11.669" /><path
         id="rect3"
         style="fill:#737373;fill-opacity:0.619231;stroke-width:0.264583"
         d="m 44.531649,83.45072 v 2.484086 h 13.747998 c 0.425266,-0.894362 0.928026,-1.723926 1.495516,-2.484086 z m 102.196341,0 c 0.56745,0.760113 1.06977,1.589792 1.495,2.484086 h 12.60595 V 83.45072 Z" /><path
         id="rect3-4"
         style="fill:#737373;fill-opacity:0.619231;stroke-width:0.264583"
         d="m 44.531649,87.875773 v 2.484603 h 12.374438 c 0.139077,-0.859749 0.346398,-1.687293 0.604098,-2.484603 z m 104.460811,0 c 0.2577,0.797311 0.46553,1.624852 0.60461,2.484603 h 11.23187 v -2.484603 z" /><path
         id="rect3-2"
         style="fill:#737373;fill-opacity:0.619231;stroke-width:0.264583"
         d="m 44.531649,91.777344 v 2.484086 h 12.189437 c -0.02134,-0.355666 -0.04444,-0.710837 -0.04444,-1.07332 v -5.16e-4 c 0,-0.476271 0.02175,-0.945991 0.05839,-1.41025 z m 105.235951,0 c 0.0366,0.464259 0.0584,0.933979 0.0584,1.41025 v 5.16e-4 c 0,0.362483 -0.0231,0.717654 -0.0444,1.07332 h 11.04738 v -2.484086 z" /><path
         id="rect3-5"
         style="fill:#737373;fill-opacity:0.619231;stroke-width:0.264583"
         d="m 44.531649,96.181209 v 2.484086 h 13.028145 c -0.266479,-0.795803 -0.480211,-1.624374 -0.627869,-2.484086 z m 105.039581,0 c -0.14766,0.859714 -0.3619,1.688282 -0.62838,2.484086 h 11.88609 v -2.484086 z" /><path
         id="rect3-8"
         style="fill:#737373;fill-opacity:0.619231;stroke-width:0.264583"
         d="m 44.531649,100.24246 v 2.48409 h 15.094686 c -0.549094,-0.76339 -1.037244,-1.59183 -1.445907,-2.48409 z m 103.790561,0 c -0.40865,0.89223 -0.89632,1.72073 -1.44539,2.48409 h 13.95212 v -2.48409 z" /><path
         style="fill:#737373;fill-opacity:1;stroke:#737373;stroke-width:2.165;stroke-linejoin:round;stroke-dasharray:none;stroke-opacity:1"
         d="m 95.246494,192.3797 7.807086,7.83962 7.8071,-7.80709 z"
         id="path10"
         sodipodi:nodetypes="cccc" /><path
         id="rect11"
         style="fill:#737373;fill-opacity:1;stroke:none;stroke-width:3.67071;stroke-linejoin:round;stroke-dasharray:none;stroke-opacity:1"
         d="m 156.91859,127.38447 v 77.51672 c 2.2344,-0.42199 3.91035,-2.29942 3.91035,-4.56872 v -72.948 z" /><path
         id="path11"
         style="fill:#737373;fill-opacity:1;stroke-width:0.246086"
         d="m 44.531649,127.2558 v 72.87255 0.20412 c 0,0.81409 0.234799,1.56626 0.614433,2.23088 0.768389,1.44824 2.184883,2.42931 3.831807,2.42931 h 0.33693 V 127.2558 Z" /><text
         xml:space="preserve"
         style="font-size:22.5778px;text-align:start;writing-mode:lr-tb;direction:ltr;text-anchor:start;fill:#acacac;fill-opacity:1;stroke:none;stroke-width:2.165;stroke-linejoin:round;stroke-dasharray:none;stroke-opacity:1"
         x="102.51256"
         y="98.523056"
         id="text12"><tspan
           sodipodi:role="line"
           id="tspan12"
           style="font-style:normal;font-variant:normal;font-weight:bold;font-stretch:normal;font-size:22.5778px;font-family:Consolas;-inkscape-font-specification:'Consolas Bold';text-align:center;text-anchor:middle;fill:#000000;fill-opacity:1;stroke-width:2.165"
           x="102.51256"
           y="98.523056">BadBoy</tspan></text></g></g></svg>
